# xmcd
#
# Track frame offsets:
# 150
# 12459
# 23752
# 35795
# 49553
# 67501
# 76983
# 88625
# 99271
# 111726
#
# Disc length: 1652 seconds
#
#
# Revision: 1
# Processed by: cddbd v1.5.2PL0 Copyright (c) Steve Scherf et al.
# Submitted via: FreeRIP 2.951 
#
DISCID=7306720a
DTITLE=Freddy Fender - Tex-Mex Tornado
DYEAR=2005
DGENRE=Country
TTITLE0=Wasted Days And Wasted Nights
TTITLE1=You'll Lose A Good Thing
TTITLE2=Before The Next Teardrop Falls
TTITLE3=The Rains Came
TTITLE4=Secret Love
TTITLE5=Sugar Coated Love
TTITLE6=Walking Piece Of Heaven
TTITLE7=A Man Can Cry
TTITLE8=Almost Persuaded
TTITLE9=Tell It Like It Is
EXTD=YEAR: 2005
EXTT0=
EXTT1=
EXTT2=
EXTT3=
EXTT4=
EXTT5=
EXTT6=
EXTT7=
EXTT8=
EXTT9=
PLAYORDER=
